<?xml version="1.0" standalone="no"?>
<!DOCTYPE svg PUBLIC "-//W3C//DTD SVG 20010904//EN"
 "http://www.w3.org/TR/2001/REC-SVG-20010904/DTD/svg10.dtd">
<svg version="1.0" xmlns="http://www.w3.org/2000/svg"
 width="1024.000000pt" height="1024.000000pt" viewBox="0 0 1024.000000 1024.000000"
 preserveAspectRatio="xMidYMid meet">

<g transform="translate(0.000000,1024.000000) scale(0.100000,-0.100000)"
fill="#000000" stroke="none">
<path d="M2615 6197 c-230 -66 -311 -93 -286 -95 18 -2 38 1 44 7 6 6 20 11
30 11 20 0 140 36 169 51 10 5 31 9 47 9 17 0 33 5 36 10 3 6 19 10 35 10 16
0 32 5 35 10 3 6 17 10 30 10 13 0 27 5 30 10 3 6 19 10 35 10 16 0 31 4 34 9
3 5 20 11 38 14 18 3 51 10 73 15 l40 10 -35 0 c-19 1 -179 -41 -355 -91z"/>
<path d="M3020 6270 c8 -5 24 -10 34 -10 26 0 18 6 -19 14 -22 5 -26 4 -15 -4z"/>
<path d="M3118 6243 c7 -3 16 -2 19 1 4 3 -2 6 -13 5 -11 0 -14 -3 -6 -6z"/>
<path d="M3188 6223 c7 -3 16 -2 19 1 4 3 -2 6 -13 5 -11 0 -14 -3 -6 -6z"/>
<path d="M3220 6210 c0 -5 13 -10 29 -10 17 0 33 -4 36 -10 3 -5 19 -10 35
-10 16 0 32 -4 35 -10 3 -5 21 -10 38 -9 24 0 11 7 -48 24 -115 35 -125 37
-125 25z"/>
<path d="M5050 5761 l0 -431 -72 -1 c-60 0 -68 -2 -48 -10 14 -6 48 -8 75 -4
73 9 77 19 65 165 -6 67 -8 196 -5 288 14 366 14 401 -1 413 -12 10 -14 -53
-14 -420z"/>
<path d="M4560 6012 c0 -95 4 -172 8 -172 11 0 10 325 0 336 -5 4 -8 -70 -8
-164z"/>
<path d="M3435 6150 c3 -5 17 -10 30 -10 13 0 27 -4 30 -10 3 -5 21 -10 38 -9
31 0 31 1 -10 13 -74 24 -95 27 -88 16z"/>
<path d="M3575 6110 c3 -5 18 -10 32 -10 32 0 28 5 -10 14 -19 4 -26 3 -22 -4z"/>
<path d="M2188 6074 c-50 -16 -81 -32 -88 -44 -16 -30 -8 -1084 8 -1125 10
-25 11 -11 7 85 -3 63 -8 313 -11 555 l-5 441 34 37 c22 25 42 37 60 37 14 0
29 5 32 10 3 6 17 10 30 10 13 0 27 5 30 10 9 15 -11 11 -97 -16z"/>
<path d="M3966 6085 c4 -8 8 -15 10 -15 2 0 4 7 4 15 0 8 -4 15 -10 15 -5 0
-7 -7 -4 -15z"/>
<path d="M5777 6050 c4 -19 8 -66 7 -105 0 -106 -45 -179 -137 -226 -34 -18
-36 -22 -26 -42 11 -20 13 -20 19 -3 3 11 30 38 59 60 47 37 61 54 93 118 14
31 9 173 -8 204 l-15 29 8 -35z"/>
<path d="M5334 6054 c3 -9 6 -18 6 -21 0 -4 9 2 20 12 16 15 33 17 111 13 51
-2 83 -1 73 3 -10 4 -63 8 -118 8 -86 1 -97 -1 -92 -15z"/>
<path d="M3985 5482 l0 -577 -28 -90 c-96 -313 -300 -557 -631 -755 -96 -58
-282 -144 -343 -160 -37 -9 -36 -9 10 -4 26 3 64 14 85 24 20 10 87 42 147 71
61 30 119 62 129 71 11 10 26 18 33 18 7 0 13 5 13 10 0 6 6 10 13 10 7 0 22
8 33 18 10 10 35 28 54 42 19 13 37 27 40 30 3 3 23 19 45 35 46 34 145 134
145 146 0 4 10 18 23 31 12 13 33 39 47 58 13 19 27 37 30 40 3 3 30 55 59
115 30 61 58 118 62 127 5 10 9 27 9 38 0 11 4 20 9 20 5 0 12 21 16 48 10 65
17 1180 8 1197 -5 7 -8 -246 -8 -563z"/>
<path d="M5342 5910 c0 -19 2 -27 5 -17 2 9 2 25 0 35 -3 9 -5 1 -5 -18z"/>
<path d="M2859 5832 c-34 -17 -65 -44 -84 -71 -29 -42 -30 -46 -33 -177 -3
-91 0 -134 7 -134 7 0 11 44 11 131 0 77 5 139 11 151 17 32 77 88 94 88 8 0
15 5 15 10 0 6 11 10 24 10 14 0 28 5 31 10 11 18 -22 10 -76 -18z"/>
<path d="M3270 5856 c0 -4 8 -20 19 -34 10 -15 26 -47 34 -72 10 -28 16 -37
17 -23 0 12 -10 39 -21 60 -28 50 -49 79 -49 69z"/>
<path d="M3340 5610 c0 -65 3 -90 10 -80 5 8 10 44 10 80 0 36 -5 72 -10 80
-7 10 -10 -15 -10 -80z"/>
<path d="M4560 5680 c0 -24 6 -25 26 -6 19 20 18 26 -6 26 -13 0 -20 -7 -20
-20z"/>
<path d="M4685 5690 c-4 -6 22 -10 70 -10 48 0 74 4 70 10 -3 6 -35 10 -70 10
-35 0 -67 -4 -70 -10z"/>
<path d="M5333 5664 c-2 -7 0 -21 6 -31 10 -17 11 -17 17 4 3 12 16 23 28 25
15 3 12 5 -12 9 -23 4 -35 2 -39 -7z"/>
<path d="M5435 5670 c-3 -5 1 -10 10 -10 9 0 13 5 10 10 -3 6 -8 10 -10 10 -2
0 -7 -4 -10 -10z"/>
<path d="M4563 5550 c0 -25 2 -35 4 -22 2 12 2 32 0 45 -2 12 -4 2 -4 -23z"/>
<path d="M5686 5567 c3 -10 9 -15 12 -12 3 3 0 11 -7 18 -10 9 -11 8 -5 -6z"/>
<path d="M5341 5515 c0 -35 1 -37 10 -17 6 15 5 30 -1 40 -7 13 -9 8 -9 -23z"/>
<path d="M4561 5407 c-1 -43 3 -66 9 -62 12 7 12 82 0 110 -6 14 -9 -1 -9 -48z"/>
<path d="M5788 5395 c15 -25 29 -40 31 -34 2 6 0 14 -5 18 -5 3 -15 18 -23 34
-8 15 -18 27 -22 27 -5 0 4 -20 19 -45z"/>
<path d="M5337 5370 c-3 -11 -1 -23 4 -26 5 -3 9 6 9 20 0 31 -6 34 -13 6z"/>
<path d="M3526 5365 c4 -8 8 -15 10 -15 2 0 4 7 4 15 0 8 -4 15 -10 15 -5 0
-7 -7 -4 -15z"/>
<path d="M3548 5142 c2 -149 -1 -216 -12 -271 -41 -197 -196 -379 -381 -448
-53 -19 -56 -22 -28 -22 17 -1 35 4 38 9 3 6 15 10 26 10 23 0 58 18 80 43 9
9 21 17 27 17 13 0 133 119 149 148 7 12 19 32 25 45 7 12 15 24 18 27 13 13
50 94 50 110 0 11 5 22 10 25 12 7 14 505 3 505 -5 0 -7 -89 -5 -198z"/>
<path d="M4457 5314 c37 -13 46 -13 75 0 33 14 32 14 -42 15 l-75 0 42 -15z"/>
<path d="M5250 5320 c36 -4 72 -4 80 1 9 5 -16 8 -65 7 l-80 -1 65 -7z"/>
<path d="M5698 5323 c23 -2 61 -2 85 0 23 2 4 4 -43 4 -47 0 -66 -2 -42 -4z"/>
<path d="M2537 5303 c-4 -3 -6 -97 -5 -207 l3 -201 2 188 c3 145 7 192 17 203
12 11 90 14 428 17 l413 2 -426 3 c-234 1 -429 -1 -432 -5z"/>
<path d="M6650 5011 l0 -61 -150 0 -150 0 0 -25 c0 -30 15 -32 30 -4 11 20 18
21 140 17 71 -1 130 -1 132 2 32 48 37 100 13 120 -13 11 -15 5 -15 -49z"/>
<path d="M5370 5054 c0 -5 7 -29 14 -54 l15 -45 0 35 c0 19 -6 44 -14 54 -8
11 -15 16 -15 10z"/>
<path d="M6120 5009 c0 -31 4 -48 10 -44 6 3 10 26 10 51 0 24 -4 44 -10 44
-5 0 -10 -23 -10 -51z"/>
<path d="M8006 5038 c3 -13 13 -34 20 -48 19 -36 18 -1 -2 38 -18 37 -28 42
-18 10z"/>
<path d="M8327 4811 l-117 -250 0 -155 0 -155 -60 -4 -60 -4 62 1 63 1 6 150
c6 160 12 191 41 243 10 18 18 39 18 46 0 8 3 16 8 18 10 4 52 87 52 104 0 8
5 14 10 14 6 0 10 6 10 13 0 18 24 67 33 67 4 0 7 7 7 15 0 14 18 53 30 65 23
23 39 80 22 80 -5 0 -61 -112 -125 -249z"/>
<path d="M7681 5028 c0 -7 4 -22 9 -33 7 -17 9 -15 9 13 1 17 -3 32 -9 32 -5
0 -10 -6 -9 -12z"/>
<path d="M2901 5004 c-28 -23 -31 -31 -29 -77 1 -46 2 -47 5 -13 5 44 29 86
49 86 8 0 14 4 14 9 0 6 15 12 33 14 l32 4 -37 1 c-26 2 -45 -5 -67 -24z"/>
<path d="M4881 4965 c11 -19 24 -56 29 -82 l8 -48 1 53 c0 28 -2 52 -7 52 -4
0 -13 14 -20 30 -8 17 -18 30 -23 30 -4 0 1 -16 12 -35z"/>
<path d="M3200 4930 c-1 -139 -117 -248 -252 -238 -29 2 -62 8 -73 12 -16 6
-17 6 -5 -3 8 -6 39 -18 68 -27 44 -14 57 -15 80 -4 15 7 38 18 51 24 12 6 43
29 67 52 65 60 104 178 74 224 -7 11 -10 -1 -10 -40z"/>
<path d="M7271 4975 c0 -5 6 -21 14 -35 8 -14 14 -20 14 -15 0 6 -6 21 -14 35
-8 14 -14 21 -14 15z"/>
<path d="M7701 4958 c0 -7 4 -22 9 -33 8 -18 9 -17 9 7 1 15 -3 30 -9 33 -5 3
-10 0 -9 -7z"/>
<path d="M4554 4926 c-23 -23 -34 -43 -34 -62 0 -23 2 -26 10 -14 5 8 10 21
10 28 0 18 46 62 64 62 8 0 18 5 21 10 16 25 -41 6 -71 -24z"/>
<path d="M5401 4943 c0 -4 4 -17 9 -28 8 -19 9 -19 9 2 1 12 -3 25 -9 28 -5 3
-10 3 -9 -2z"/>
<path d="M5820 4918 l0 -33 23 29 24 29 115 -6 c63 -3 121 -1 129 4 9 5 -45 9
-138 9 l-153 0 0 -32z"/>
<path d="M6925 4815 c0 -74 3 -135 8 -135 4 0 7 52 7 116 0 87 4 119 14 130
17 16 77 19 93 3 6 -6 23 -9 39 -7 l29 4 -28 12 c-16 7 -58 12 -95 12 l-67 0
0 -135z"/>
<path d="M7305 4832 c0 -99 -22 -158 -80 -211 -53 -49 -122 -71 -225 -71 l-76
0 5 -37 c3 -24 6 -31 9 -18 8 39 22 45 103 45 43 0 81 5 84 10 3 6 17 10 31
10 13 0 24 5 24 10 0 6 7 10 15 10 20 0 85 65 85 85 0 8 5 15 10 15 6 0 10 9
10 20 0 11 5 20 10 20 12 0 14 176 3 183 -5 3 -8 -29 -8 -71z"/>
<path d="M5267 4879 c-9 -32 -9 -39 2 -39 13 0 19 23 11 44 -6 18 -7 18 -13
-5z"/>
<path d="M5421 4878 c0 -7 4 -22 9 -33 8 -18 9 -17 9 7 1 15 -3 30 -9 33 -5 3
-10 0 -9 -7z"/>
<path d="M7570 4878 c0 -7 -3 -24 -7 -38 -6 -22 -5 -24 10 -11 18 15 23 61 7
61 -5 0 -10 -6 -10 -12z"/>
<path d="M7732 4860 c0 -14 2 -19 5 -12 2 6 2 18 0 25 -3 6 -5 1 -5 -13z"/>
<path d="M2547 4849 c4 -13 8 -18 11 -10 2 7 -1 18 -6 23 -8 8 -9 4 -5 -13z"/>
<path d="M2127 4839 c4 -13 8 -18 11 -10 2 7 -1 18 -6 23 -8 8 -9 4 -5 -13z"/>
<path d="M5820 4793 c0 -42 4 -73 10 -73 13 0 13 110 0 130 -7 10 -10 -7 -10
-57z"/>
<path d="M4840 4836 c0 -8 51 -13 56 -5 3 5 -9 9 -25 9 -17 0 -31 -2 -31 -4z"/>
<path d="M5251 4814 c0 -11 3 -14 6 -6 3 7 2 16 -1 19 -3 4 -6 -2 -5 -13z"/>
<path d="M5441 4808 c0 -7 4 -22 9 -33 8 -18 9 -17 9 7 1 15 -3 30 -9 33 -5 3
-10 0 -9 -7z"/>
<path d="M7548 4785 c-3 -14 -1 -25 3 -25 5 0 9 11 9 25 0 14 -2 25 -4 25 -2
0 -6 -11 -8 -25z"/>
<path d="M6356 4763 c-11 -11 -6 -23 9 -23 8 0 15 4 15 9 0 13 -16 22 -24 14z"/>
<path d="M5208 4665 c-15 -55 -25 -101 -23 -103 13 -13 35 11 35 38 0 17 5 40
11 51 5 11 9 41 7 67 -3 46 -3 45 -30 -53z"/>
<path d="M5461 4740 c0 -8 4 -24 9 -35 l9 -20 0 20 c0 11 -4 27 -9 35 -9 13
-10 13 -9 0z"/>
<path d="M7511 4657 c-13 -48 -21 -90 -18 -93 13 -13 27 10 27 45 0 20 5 42
11 48 6 6 9 28 7 49 -3 36 -5 31 -27 -49z"/>
<path d="M7771 4724 c0 -11 3 -14 6 -6 3 7 2 16 -1 19 -3 4 -6 -2 -5 -13z"/>
<path d="M2186 4697 c3 -10 9 -15 12 -12 3 3 0 11 -7 18 -10 9 -11 8 -5 -6z"/>
<path d="M6620 4665 c0 -28 4 -44 10 -40 6 3 10 21 10 40 0 19 -4 37 -10 40
-6 4 -10 -12 -10 -40z"/>
<path d="M6090 4646 l0 -56 -135 0 -135 0 0 -32 1 -33 20 28 c20 27 22 27 136
27 86 0 118 4 129 14 18 19 18 80 -1 96 -13 11 -15 5 -15 -44z"/>
<path d="M7781 4688 c0 -7 4 -22 9 -33 8 -18 9 -17 9 7 1 15 -3 30 -9 33 -5 3
-10 0 -9 -7z"/>
<path d="M2215 4643 c8 -18 18 -33 20 -33 10 0 4 16 -16 40 l-20 25 16 -32z"/>
<path d="M5487 4649 c4 -13 8 -18 11 -10 2 7 -1 18 -6 23 -8 8 -9 4 -5 -13z"/>
<path d="M4565 4610 c3 -5 17 -10 30 -10 13 0 27 -4 30 -10 3 -5 21 -10 38 -9
l32 1 -40 12 c-73 23 -97 27 -90 16z"/>
<path d="M6350 4584 c0 -31 2 -35 15 -24 8 7 15 18 15 25 0 6 10 17 23 23 20
10 19 11 -15 11 -37 1 -38 0 -38 -35z"/>
<path d="M6450 4610 c20 -13 160 -13 160 0 0 6 -36 10 -87 10 -61 0 -83 -3
-73 -10z"/>
<path d="M4906 4585 c4 -8 8 -15 10 -15 2 0 4 7 4 15 0 8 -4 15 -10 15 -5 0
-7 -7 -4 -15z"/>
<path d="M5507 4579 c4 -13 8 -18 11 -10 2 7 -1 18 -6 23 -8 8 -9 4 -5 -13z"/>
<path d="M4928 4500 c2 -32 -1 -74 -8 -95 -21 -64 -96 -134 -168 -155 l-27 -8
27 -1 c15 -1 30 4 33 9 3 6 15 10 27 10 22 0 108 85 108 107 0 7 5 13 10 13
12 0 14 166 2 174 -5 3 -6 -21 -4 -54z"/>
<path d="M5521 4533 c0 -5 4 -17 9 -28 8 -18 9 -17 9 8 1 15 -3 27 -9 27 -5 0
-10 -3 -9 -7z"/>
<path d="M4510 4478 c1 -13 7 -34 15 -48 l14 -25 1 33 c0 18 -7 40 -15 48 -13
14 -15 13 -15 -8z"/>
<path d="M7840 4493 c1 -19 39 -126 39 -110 1 19 -29 117 -35 117 -2 0 -4 -3
-4 -7z"/>
<path d="M5822 4440 c0 -45 1 -50 8 -27 5 15 5 39 0 55 -7 22 -8 17 -8 -28z"/>
<path d="M5541 4473 c0 -4 4 -17 9 -28 8 -19 9 -19 9 2 1 12 -3 25 -9 28 -5 3
-10 3 -9 -2z"/>
<path d="M6932 4358 l-2 -107 -67 -4 -68 -3 68 -2 c48 -1 69 2 73 11 2 7 3 58
1 113 l-3 99 -2 -107z"/>
<path d="M5146 4433 c-8 -29 -46 -167 -46 -170 0 -2 5 -3 10 -3 6 0 10 9 10
19 0 11 5 23 10 26 6 3 10 21 10 38 0 18 8 41 18 52 32 38 64 47 159 43 50 -2
89 0 86 5 -2 4 -60 7 -128 7 -109 0 -124 -2 -129 -17z"/>
<path d="M7446 4418 c-3 -17 -4 -33 -2 -35 2 -2 18 10 36 27 33 31 34 31 131
28 53 -2 95 0 92 5 -2 4 -60 7 -127 7 l-123 0 -7 -32z"/>
<path d="M2737 4429 c7 -7 15 -10 18 -7 3 3 -2 9 -12 12 -14 6 -15 5 -6 -5z"/>
<path d="M5561 4403 c0 -4 4 -17 9 -28 8 -19 9 -19 9 2 1 12 -3 25 -9 28 -5 3
-10 3 -9 -2z"/>
<path d="M2960 4390 l-85 -6 97 -2 c56 -1 99 2 103 8 3 6 -2 9 -12 8 -10 -1
-56 -5 -103 -8z"/>
<path d="M7418 4313 l-18 -62 -62 -4 -63 -4 64 1 c62 1 66 2 84 33 11 19 17
46 15 65 -3 30 -5 27 -20 -29z"/>
<path d="M6660 4305 l0 -55 -222 -3 -223 -2 221 -3 c205 -2 222 -1 238 17 13
14 15 28 10 60 -9 59 -24 51 -24 -14z"/>
<path d="M7887 4329 c4 -13 8 -18 11 -10 2 7 -1 18 -6 23 -8 8 -9 4 -5 -13z"/>
<path d="M5594 4295 l14 -45 -66 -1 -67 -1 47 -9 c61 -12 98 1 98 36 0 14 -4
25 -10 25 -5 0 -10 9 -10 20 0 11 -4 20 -10 20 -5 0 -3 -19 4 -45z"/>
<path d="M5820 4303 c0 -24 5 -43 10 -43 13 0 13 50 0 70 -7 11 -10 4 -10 -27z"/>
<path d="M4548 4243 c7 -3 16 -2 19 1 4 3 -2 6 -13 5 -11 0 -14 -3 -6 -6z"/>
<path d="M5018 4243 c18 -2 45 -2 60 0 15 2 0 4 -33 4 -33 0 -45 -2 -27 -4z"/>
<path d="M5728 4243 c17 -2 47 -2 65 0 17 2 3 4 -33 4 -36 0 -50 -2 -32 -4z"/>
<path d="M7823 4243 c15 -2 39 -2 55 0 15 2 2 4 -28 4 -30 0 -43 -2 -27 -4z"/>
<path d="M4648 4233 c12 -2 30 -2 40 0 9 3 -1 5 -23 4 -22 0 -30 -2 -17 -4z"/>
<path d="M2757 3969 c7 -7 15 -10 18 -7 3 3 -2 9 -12 12 -14 6 -15 5 -6 -5z"/>
<path d="M2797 3949 c7 -7 15 -10 18 -7 3 3 -2 9 -12 12 -14 6 -15 5 -6 -5z"/>
</g>
</svg>
